<?xml version="1.0" encoding="UTF-8"?>
<svg id="_Слой_1" data-name="Слой 1" xmlns="http://www.w3.org/2000/svg" viewBox="0 0 639 726">
  <defs>
    <style>
      .cls-1 {
        fill: #fff;
      }

      .cls-2 {
        fill: none;
        stroke-miterlimit: 10;
      }

      .cls-2, .cls-3 {
        stroke: #fff;
        stroke-width: 8px;
      }

      .cls-3 {
        stroke-linecap: round;
        stroke-linejoin: round;
      }
    </style>
  </defs>
  <path d="M518,726H58.11c-32.09,0-58.11-26.02-58.11-58.11V145.11c0-32.09,26.02-58.11,58.11-58.11H580.89c32.09,0,58.11,26.02,58.11,58.11v459.89l-121,121Z"/>
  <polyline class="cls-2" points="639 605 515.45 605 515.45 726"/>
  <polygon class="cls-3" points="292 154 404 37 435 63 292 154"/>
  <ellipse class="cls-3" cx="432.5" cy="37.5" rx="37.5" ry="33.5"/>
  <g>
    <path class="cls-1" d="M236.15,344.54c-1.96,1.91-4.16,3.1-6.61,3.57-8.81,1.91-18.85,2.94-30.11,3.1l.98,7.38c2.45,17.47,4.53,34.07,6.24,49.79,1.71,15.72,2.57,30.81,2.57,45.26,0,17.15-3.35,29.26-10.04,36.33-6.69,7.07-17.46,10.6-32.31,10.6-9.47,0-20.4-2.14-32.8-6.43-12.4-4.29-23.05-9.61-31.94-15.96-8.9-6.35-13.34-12.23-13.34-17.63,0-2.38,1.22-4.68,3.67-6.91,2.45-2.22,5.22-4.13,8.32-5.72,3.1-1.59,5.3-2.38,6.61-2.38,2.12,0,3.51,.56,4.16,1.67,.81,1.27,1.22,2.23,1.22,2.86,0,.8-.57,1.51-1.71,2.14-2.61,1.27-4.41,2.3-5.39,3.1-.98,.8-1.47,1.99-1.47,3.57,0,3.81,3.3,8.1,9.91,12.86,6.61,4.76,14.73,8.86,24.36,12.27,9.63,3.41,18.6,5.12,26.93,5.12,7.18,0,12.97-.8,17.38-2.38,4.41-1.59,7.83-4.96,10.28-10.12,2.45-5.16,3.67-12.9,3.67-23.23,0-17.31-2.78-45.66-8.32-85.04-.49-3.65-.94-6.95-1.35-9.89-.41-2.94-.7-5.44-.86-7.5-11.1,0-19.99-.08-26.68-.24-12.4-.32-22.85-1.03-31.33-2.14-2.45-.32-4.45-1.23-6-2.74-1.55-1.51-2.33-3.37-2.33-5.6,0-.95,.49-1.91,1.47-2.86,.98-.95,2.12-1.43,3.43-1.43,3.26,0,7.01,.24,11.26,.71,11.75,1.11,24.48,1.67,38.19,1.67h9.79c-.65-4.13-.9-7.06-.73-8.81,.16-1.43,1.1-2.78,2.81-4.05,1.71-1.27,3.47-1.91,5.26-1.91,1.96,0,3.51,1.43,4.65,4.29,.49,1.27,1.3,4.76,2.45,10.48,7.67,0,13.75-.28,18.24-.83,4.49-.55,7.06-.91,7.71-1.07,4.57-.63,7.59-.95,9.06-.95,1.63,0,2.98,.24,4.04,.71,1.06,.48,1.59,1.19,1.59,2.14,0,2.23-.98,4.29-2.94,6.19Z"/>
    <path class="cls-1" d="M381.3,433.63c-9.47,14.93-21.62,27-36.47,36.21-14.85,9.21-29.86,13.82-45.04,13.82-8.81,0-17.13-1.79-24.97-5.36s-14.2-8.85-19.09-15.84c-4.9-6.99-7.34-15.4-7.34-25.25,0-16.83,4.49-34.26,13.46-52.29,8.97-18.02,21.46-34.98,37.45-50.86,1.63-1.43,3.18-2.38,4.65-2.86,1.47-.48,3.18-.71,5.14-.71,1.63,0,3.22,.4,4.77,1.19,1.55,.8,2.33,1.75,2.33,2.86,0,.64-.29,1.55-.86,2.74-.57,1.19-.94,1.95-1.1,2.26,.98,0,2.16-.12,3.55-.36,1.38-.24,4.12-.36,8.2-.36,4.73,0,11.14,.76,19.21,2.26,8.08,1.51,13.99,3.06,17.75,4.65,10.61,4.61,18.68,10.52,24.23,17.75,5.55,7.23,8.32,14.97,8.32,23.23,0,16.36-4.73,32-14.2,46.93Zm-2.94-64.44c-4.41-5.8-10.93-10.6-19.58-14.41-4.74-2.06-10.69-3.1-17.87-3.1-2.29,0-5.38,.16-9.3,.48l-9.06,.24c-7.83,0-11.75-1.59-11.75-4.76,0-1.11,.08-2.14,.25-3.1,.16-.95,.32-1.59,.49-1.91-3.43,0-6.2,.95-8.32,2.86-13.38,13.5-23.71,27.87-30.96,43.12-7.26,15.25-10.89,30.1-10.89,44.55,0,13.5,3.46,23.31,10.4,29.42,6.93,6.12,16.44,9.17,28.52,9.17,13.71,0,27.13-3.81,40.27-11.43,13.13-7.62,23.82-17.63,32.07-30.02,8.24-12.39,12.36-25.25,12.36-38.59,0-9.21-2.2-16.71-6.61-22.51Z"/>
    <path class="cls-1" d="M558.52,433.52c-5.71,7.71-13.55,16.4-23.5,26.08-7.34,7.15-15.99,14.14-25.95,20.96-6.53,4.44-12.93,8.26-19.21,11.43-6.28,3.17-11.06,4.76-14.32,4.76-1.63,0-3.06-.44-4.28-1.31-1.22-.88-1.84-2.18-1.84-3.93,0-2.54,.98-4.73,2.94-6.55,1.96-1.82,4.57-3.29,7.83-4.41,1.63-.63,3.92-1.27,6.85-1.91,3.75-.63,7.1-1.67,10.04-3.1,5.55-2.7,12.03-6.87,19.46-12.51,7.42-5.64,13.26-10.68,17.5-15.13,7.01-7.3,12.36-13.78,16.03-19.42,3.67-5.64,5.51-11.47,5.51-17.51,0-3.34-1.63-5.75-4.9-7.27-3.27-1.51-7.26-2.26-11.99-2.26-12.08,0-23.09,2.07-33.04,6.19-4.41,1.91-7.43,3.26-9.06,4.05-5.87,2.54-10.69,4.53-14.44,5.96-4.25,1.59-8.32,2.98-12.24,4.17-3.92,1.19-6.53,2.02-7.83,2.5l.49,9.05c0,2.38,.12,6.19,.37,11.43,.24,5.24,.37,10.17,.37,14.77,0,10.96-.82,19.85-2.45,26.68-.65,2.22-1.39,3.81-2.2,4.76-.82,.95-2.37,1.43-4.65,1.43-1.47,0-2.86-.48-4.16-1.43-1.31-.95-1.96-2.14-1.96-3.57,0-.48,.73-3.17,2.2-8.1,1.47-4.92,2.2-9.29,2.2-13.1,0-12.39-.57-28.19-1.71-47.41l-.73-10.96c-.98-10.48-1.47-18.74-1.47-24.77,0-4.6,.32-10.44,.98-17.51,.65-7.06,1.14-11.71,1.47-13.94-6.2,1.59-14.12,4.45-23.74,8.58-2.78,1.11-6.36,3.1-10.77,5.96-4.08,2.54-6.85,3.81-8.32,3.81-1.3,0-2.45-.55-3.43-1.67-.98-1.11-1.47-2.46-1.47-4.05,0-3.02,5.47-6.91,16.4-11.67,10.93-4.76,22.84-8.97,35.74-12.63,11.58-3.33,21.87-5.8,30.84-7.38,8.97-1.59,18.19-2.38,27.66-2.38,8.65,0,15.87,1.63,21.66,4.88,5.79,3.26,8.69,7.82,8.69,13.7,0,13.98-7.83,28.43-23.5,43.36,7.01-.95,13.38-1.43,19.09-1.43,7.5,0,13.95,1.51,19.34,4.53,5.39,3.02,8.08,8.1,8.08,15.25,0,7.62-2.86,15.29-8.57,22.99Zm-31.58-90.29c-3.76-1.98-8.81-2.98-15.18-2.98-6.69,0-15.1,.76-25.21,2.26-10.12,1.51-17.95,3.14-23.5,4.88-2.78,10.8-4.16,19.85-4.16,27.16,0,10.33,.49,23.35,1.47,39.07,1.63-.16,4.28-.79,7.96-1.91,3.67-1.11,7.06-2.3,10.16-3.57,15.5-6.35,28.39-14.61,38.68-24.77,10.28-10.16,15.42-20.64,15.42-31.44,0-3.81-1.88-6.71-5.63-8.7Z"/>
  </g>
</svg>